<svg width="14" height="17" viewBox="0 0 14 17" fill="none" xmlns="http://www.w3.org/2000/svg">
<path fill-rule="evenodd" clip-rule="evenodd" d="M5.16554 14.4434C8.1462 13.5468 9.81648 11.6603 10.9094 9.0963C12.0023 6.53233 12.2066 4.02095 10.7893 1.24973C7.80869 2.14635 6.13841 4.03286 5.04552 6.59683C3.95263 9.1608 3.74831 11.6722 5.16554 14.4434Z" stroke="white" stroke-width="0.5" stroke-linecap="round" stroke-linejoin="round"/>
<path d="M9.38135 11.7905C9.61766 12.1061 9.81149 12.4514 9.95786 12.8175C10.4292 13.9876 10.3924 15.2322 9.85042 16.5524C8.04573 15.6879 7.24399 14.7789 6.75433 13.8062M4.13614 9.55469C3.74456 9.60257 3.36098 9.70175 2.99527 9.84967C1.82545 10.3203 0.952324 11.2083 0.375897 12.5139C2.24858 13.2169 3.46034 13.1661 4.50114 12.8458" stroke="white" stroke-width="0.5" stroke-linecap="round" stroke-linejoin="round"/>
<path d="M8.28947 7.11356C9.0991 7.45866 10.0352 7.08209 10.3803 6.27246C10.7254 5.46283 10.3488 4.52673 9.53921 4.18163C8.72958 3.83653 7.79348 4.2131 7.44838 5.02273C7.10327 5.83235 7.47984 6.76845 8.28947 7.11356Z" stroke="white" stroke-width="0.5" stroke-linecap="round" stroke-linejoin="round"/>
</svg>
