<svg width="24" height="24" viewBox="0 0 24 24" fill="none" xmlns="http://www.w3.org/2000/svg">
<path opacity="0.5" d="M23.234 0H6.89362C6.69047 0 6.49565 0.0806988 6.352 0.224344C6.20836 0.367989 6.12766 0.562813 6.12766 0.765957V6.12766H0.765957C0.562813 6.12766 0.367989 6.20836 0.224344 6.352C0.0806988 6.49565 0 6.69047 0 6.89362V23.234C0 23.4372 0.0806988 23.632 0.224344 23.7757C0.367989 23.9193 0.562813 24 0.765957 24H17.1064C17.3095 24 17.5044 23.9193 17.648 23.7757C17.7916 23.632 17.8723 23.4372 17.8723 23.234V17.8723H23.234C23.4372 17.8723 23.632 17.7916 23.7757 17.648C23.9193 17.5044 24 17.3095 24 17.1064V0.765957C24 0.562813 23.9193 0.367989 23.7757 0.224344C23.632 0.0806988 23.4372 0 23.234 0ZM16.3404 22.4681H1.53191V7.65957H16.3404V22.4681ZM22.4681 16.3404H17.8723V6.89362C17.8723 6.69047 17.7916 6.49565 17.648 6.352C17.5044 6.20836 17.3095 6.12766 17.1064 6.12766H7.65957V1.53191H22.4681V16.3404Z" fill="white"/>
</svg>
