<svg width="27" height="18" viewBox="0 0 27 18" fill="none" xmlns="http://www.w3.org/2000/svg">
<path d="M26.9224 8.6355C26.883 8.54663 25.9301 6.43275 23.8118 4.31437C20.9891 1.49175 17.424 0 13.5 0C9.576 0 6.01087 1.49175 3.18824 4.31437C1.06987 6.43275 0.112489 8.55 0.0776143 8.6355C0.0264416 8.7506 0 8.87516 0 9.00112C0 9.12709 0.0264416 9.25165 0.0776143 9.36675C0.116989 9.45562 1.06987 11.5684 3.18824 13.6868C6.01087 16.5082 9.576 18 13.5 18C17.424 18 20.9891 16.5082 23.8118 13.6868C25.9301 11.5684 26.883 9.45562 26.9224 9.36675C26.9736 9.25165 27 9.12709 27 9.00112C27 8.87516 26.9736 8.7506 26.9224 8.6355ZM13.5 16.2C10.0372 16.2 7.01212 14.9411 4.50787 12.4594C3.48034 11.4375 2.60615 10.2723 1.91249 9C2.60597 7.72756 3.48018 6.56232 4.50787 5.54062C7.01212 3.05888 10.0372 1.8 13.5 1.8C16.9628 1.8 19.9879 3.05888 22.4921 5.54062C23.5217 6.56208 24.3978 7.72731 25.0931 9C24.282 10.5142 20.7484 16.2 13.5 16.2ZM13.5 3.6C12.432 3.6 11.3879 3.9167 10.4999 4.51006C9.61189 5.10342 8.91976 5.94679 8.51105 6.93351C8.10233 7.92023 7.99539 9.00599 8.20376 10.0535C8.41212 11.101 8.92642 12.0632 9.68162 12.8184C10.4368 13.5736 11.399 14.0879 12.4465 14.2962C13.494 14.5046 14.5798 14.3977 15.5665 13.9889C16.5532 13.5802 17.3966 12.8881 17.9899 12.0001C18.5833 11.1121 18.9 10.068 18.9 9C18.8985 7.56829 18.3291 6.19564 17.3167 5.18327C16.3044 4.17089 14.9317 3.60149 13.5 3.6ZM13.5 12.6C12.788 12.6 12.092 12.3889 11.4999 11.9933C10.9079 11.5977 10.4465 11.0355 10.174 10.3777C9.90156 9.71985 9.83026 8.99601 9.96917 8.29768C10.1081 7.59934 10.4509 6.95788 10.9544 6.45442C11.4579 5.95095 12.0993 5.60808 12.7977 5.46917C13.496 5.33027 14.2198 5.40156 14.8777 5.67403C15.5355 5.94651 16.0977 6.40793 16.4933 6.99995C16.8889 7.59196 17.1 8.28799 17.1 9C17.1 9.95478 16.7207 10.8705 16.0456 11.5456C15.3705 12.2207 14.4548 12.6 13.5 12.6Z" fill="white" fill-opacity="0.5"/>
</svg>
