<svg width="10" height="19" viewBox="0 0 10 19" fill="none" xmlns="http://www.w3.org/2000/svg">
<path d="M9.73127 1.60195C9.81711 1.5113 9.88422 1.40467 9.92876 1.28815C9.97331 1.17163 9.99442 1.04749 9.99088 0.922825C9.98735 0.798161 9.95924 0.675413 9.90816 0.561588C9.85709 0.447763 9.78405 0.345091 9.69321 0.259434C9.60237 0.173777 9.49551 0.106813 9.37873 0.0623643C9.26196 0.0179157 9.13755 -0.00314678 9.01262 0.000379779C8.88768 0.00390634 8.76467 0.0319527 8.6506 0.0829176C8.53653 0.133882 8.43363 0.206768 8.34779 0.297412L0.260084 8.8424C0.0930622 9.01868 0 9.25207 0 9.49466C0 9.73726 0.0930622 9.97065 0.260084 10.1469L8.34779 18.6929C8.43307 18.7855 8.53594 18.8603 8.65043 18.9129C8.76492 18.9655 8.88875 18.9949 9.01472 18.9994C9.14069 19.0039 9.2663 18.9833 9.38424 18.9389C9.50219 18.8945 9.61012 18.8272 9.70177 18.7409C9.79342 18.6545 9.86696 18.5508 9.91811 18.4359C9.96927 18.3209 9.99703 18.197 9.99977 18.0712C10.0025 17.9455 9.9802 17.8204 9.9341 17.7034C9.88801 17.5863 9.81906 17.4795 9.73127 17.3893L2.26013 9.49466L9.73127 1.60195Z" fill="white"/>
</svg>
