<svg width="115" height="115" viewBox="0 0 115 115" fill="none" xmlns="http://www.w3.org/2000/svg">
<circle cx="57.5" cy="57.4997" r="35.5425" stroke="white" stroke-width="12"/>
<mask id="path-2-inside-1_211_92" fill="white">
<path d="M31.2775 81.4593C28.822 83.7028 28.6265 87.5525 31.2012 89.6581C33.9893 91.9382 37.0686 93.8514 40.3651 95.344C45.4955 97.6669 51.0446 98.9224 56.6753 99.0343C62.306 99.1461 67.9006 98.1119 73.1191 95.9944C76.4723 94.6339 79.6252 92.8444 82.5015 90.6769C85.1578 88.6752 85.1153 84.8207 82.7508 82.4815C80.3864 80.1422 76.5979 80.2255 73.8278 82.0666C72.1835 83.1594 70.4294 84.0872 68.5906 84.8334C64.8851 86.3369 60.9125 87.0712 56.9144 86.9918C52.9163 86.9124 48.9761 86.0209 45.3332 84.3715C43.5254 83.553 41.8096 82.5562 40.2099 81.399C37.5152 79.4494 33.7329 79.2157 31.2775 81.4593Z"/>
</mask>
<path d="M31.2775 81.4593C28.822 83.7028 28.6265 87.5525 31.2012 89.6581C33.9893 91.9382 37.0686 93.8514 40.3651 95.344C45.4955 97.6669 51.0446 98.9224 56.6753 99.0343C62.306 99.1461 67.9006 98.1119 73.1191 95.9944C76.4723 94.6339 79.6252 92.8444 82.5015 90.6769C85.1578 88.6752 85.1153 84.8207 82.7508 82.4815C80.3864 80.1422 76.5979 80.2255 73.8278 82.0666C72.1835 83.1594 70.4294 84.0872 68.5906 84.8334C64.8851 86.3369 60.9125 87.0712 56.9144 86.9918C52.9163 86.9124 48.9761 86.0209 45.3332 84.3715C43.5254 83.553 41.8096 82.5562 40.2099 81.399C37.5152 79.4494 33.7329 79.2157 31.2775 81.4593Z" fill="url(#paint0_linear_211_92)" stroke="url(#paint1_linear_211_92)" stroke-width="16" mask="url(#path-2-inside-1_211_92)"/>
<defs>
<linearGradient id="paint0_linear_211_92" x1="92.2772" y1="80.223" x2="22.7231" y2="34.7771" gradientUnits="userSpaceOnUse">
<stop stop-color="#1440B5"/>
<stop offset="1" stop-color="#00AAF0"/>
</linearGradient>
<linearGradient id="paint1_linear_211_92" x1="29.4529" y1="81.3904" x2="81.508" y2="89.6829" gradientUnits="userSpaceOnUse">
<stop stop-color="#01A8EF"/>
<stop offset="1" stop-color="#1442B6"/>
</linearGradient>
</defs>
</svg>
