<!-- <svg width="171" height="71" viewBox="0 0 171 71" fill="none" xmlns="http://www.w3.org/2000/svg">
<path d="M64.1654 42.354L64.1603 38.604C64.8407 39.1734 65.5796 39.6021 66.3769 39.89C67.1741 40.1702 67.979 40.3097 68.7915 40.3086C69.2681 40.3079 69.6821 40.2644 70.0335 40.178C70.3928 40.0915 70.6895 39.9739 70.9237 39.8252C71.1656 39.6686 71.3451 39.4887 71.462 39.2854C71.5789 39.0743 71.6372 38.8476 71.6368 38.6055C71.6364 38.2773 71.5422 37.9845 71.3544 37.7269C71.1665 37.4694 70.9084 37.2315 70.5799 37.0132C70.2593 36.7949 69.8762 36.5844 69.4306 36.3819C68.9851 36.1794 68.5043 35.973 67.9884 35.7628C66.6751 35.2177 65.6938 34.5511 65.0442 33.7629C64.4025 32.9748 64.0809 32.0221 64.0794 30.9049C64.0782 30.0299 64.2529 29.2797 64.6036 28.6542C64.9543 28.0209 65.4302 27.5007 66.0312 27.0936C66.64 26.6865 67.3427 26.3887 68.1393 26.2001C68.9359 26.0037 69.7795 25.9049 70.6702 25.9037C71.5452 25.9024 72.3187 25.9561 72.9907 26.0645C73.6705 26.1652 74.2957 26.3245 74.8664 26.5424L74.8712 30.0463C74.5897 29.8514 74.2808 29.6799 73.9447 29.532C73.6164 29.384 73.2763 29.2634 72.9247 29.1701C72.5729 29.069 72.2213 28.9953 71.8697 28.9489C71.5258 28.9025 71.1977 28.8795 70.8852 28.8799C70.4555 28.8805 70.0649 28.924 69.7135 29.0104C69.362 29.089 69.0653 29.2027 68.8233 29.3515C68.5814 29.5003 68.3941 29.6802 68.2616 29.8913C68.129 30.0946 68.063 30.3252 68.0633 30.583C68.0637 30.8643 68.1383 31.1181 68.287 31.3444C68.4357 31.563 68.647 31.7736 68.9207 31.9764C69.1944 32.1713 69.5267 32.3662 69.9176 32.5609C70.3085 32.7479 70.7501 32.9426 71.2426 33.1451C71.9149 33.4254 72.5168 33.7253 73.0485 34.0449C73.588 34.3567 74.0494 34.7115 74.4328 35.1094C74.8162 35.5073 75.1098 35.964 75.3136 36.4793C75.5174 36.9869 75.6198 37.5805 75.6207 38.2601C75.622 39.1976 75.4434 39.987 75.0849 40.6281C74.7342 41.2614 74.2545 41.7777 73.6456 42.1769C73.0368 42.5684 72.3262 42.8506 71.514 43.0236C70.7095 43.1966 69.8581 43.2837 68.9596 43.2849C68.0378 43.2862 67.1588 43.2093 66.3226 43.0542C65.4943 42.8991 64.7752 42.6657 64.1654 42.354ZM79.8855 29.0785C79.2605 29.0794 78.7485 28.8965 78.3496 28.5298C77.9506 28.1554 77.7508 27.6986 77.75 27.1596C77.7493 26.6049 77.9479 26.1515 78.3458 25.7994C78.7438 25.4473 79.2552 25.2708 79.8802 25.2699C80.5131 25.269 81.025 25.4441 81.4161 25.7951C81.815 26.1462 82.0149 26.599 82.0156 27.1537C82.0164 27.7162 81.8178 28.1774 81.4199 28.5373C81.0298 28.8972 80.5183 29.0776 79.8855 29.0785ZM81.7327 42.9744L78.0296 42.9795L78.0131 30.9795L81.7162 30.9744L81.7327 42.9744ZM103.905 42.944L100.213 42.949L100.204 36.1053C100.201 34.3631 99.5595 33.4929 98.2783 33.4947C97.6689 33.4955 97.1732 33.7579 96.7911 34.2819C96.409 34.8058 96.2185 35.4584 96.2195 36.2397L96.2288 42.9545L92.5256 42.9596L92.5161 36.0455C92.5138 34.3502 91.8837 33.5034 90.6259 33.5052C89.9931 33.506 89.4857 33.7567 89.1035 34.2573C88.7292 34.7578 88.5426 35.4377 88.5438 36.2971L88.553 42.9651L84.8499 42.9701L84.8334 30.9701L88.5365 30.9651L88.5391 32.8401L88.586 32.84C88.9679 32.1988 89.5023 31.6786 90.1893 31.2792C90.884 30.872 91.6416 30.6678 92.4619 30.6667C94.1572 30.6644 95.3184 31.4089 95.9454 32.9002C96.8574 31.4068 98.2002 30.6588 99.9736 30.6564C102.583 30.6528 103.89 32.2604 103.894 35.4791L103.905 42.944ZM110.582 41.5403L110.535 41.5403L110.545 48.4544L106.842 48.4595L106.818 30.94L110.521 30.9349L110.523 32.7396L110.57 32.7395C111.482 31.3398 112.767 30.6388 114.423 30.6366C115.977 30.6344 117.177 31.1679 118.023 32.2371C118.876 33.2984 119.303 34.7471 119.306 36.583C119.309 38.583 118.815 40.1891 117.824 41.4014C116.842 42.6137 115.53 43.221 113.889 43.2232C112.444 43.2252 111.342 42.6642 110.582 41.5403ZM110.47 36.6186L110.471 37.5795C110.473 38.4076 110.692 39.0831 111.13 39.6059C111.569 40.1288 112.143 40.3897 112.854 40.3887C113.698 40.3876 114.35 40.0624 114.81 39.4134C115.278 38.7565 115.511 37.8304 115.509 36.6351C115.506 34.5257 114.685 33.4721 113.044 33.4744C112.286 33.4754 111.665 33.7653 111.182 34.3441C110.706 34.9151 110.469 35.6732 110.47 36.6186ZM125.42 42.9144L121.717 42.9195L121.693 25.1539L125.396 25.1488L125.42 42.9144ZM130.393 29.0092C129.768 29.01 129.256 28.8271 128.857 28.4605C128.458 28.086 128.259 27.6293 128.258 27.0902C128.257 26.5355 128.456 26.0821 128.854 25.73C129.252 25.3779 129.763 25.2014 130.388 25.2006C131.021 25.1997 131.533 25.3748 131.924 25.7258C132.323 26.0768 132.523 26.5297 132.523 27.0844C132.524 27.6469 132.326 28.1081 131.928 28.468C131.538 28.8279 131.026 29.0083 130.393 29.0092ZM132.24 42.9051L128.537 42.9102L128.521 30.9102L132.224 30.9051L132.24 42.9051ZM154.869 42.874L151.131 42.8791L151.117 32.8245C151.116 31.7385 151.161 30.5392 151.253 29.2266L151.159 29.2267C150.965 30.2583 150.791 31.0007 150.635 31.454L146.713 42.8852L143.619 42.8895L139.596 31.5864C139.486 31.2818 139.309 30.5008 139.065 29.2434L138.96 29.2435C139.064 30.8996 139.117 32.3527 139.118 33.6027L139.131 42.8956L135.721 42.9003L135.698 26.0956L141.241 26.088L144.688 36.0442C144.963 36.8407 145.163 37.6412 145.289 38.4458L145.359 38.4457C145.569 37.5157 145.791 36.7068 146.024 36.019L149.444 26.0768L154.846 26.0693L154.869 42.874ZM168.697 42.855L158.69 42.8688L158.667 26.0641L162.452 26.0589L162.471 39.7933L168.693 39.7847L168.697 42.855Z" fill="white"/>
<path d="M40.7184 8.83962L23.2004 26.6236L8.90131 40.9969L3.74406 35.877L2.71298 34.8479C2.48568 34.6213 2.27574 34.3958 2.08433 34.1546C0.173379 31.8283 -0.426828 28.7889 0.297133 26.0151C0.683284 24.4817 1.47343 23.0311 2.67258 21.8295L21.5132 2.71366C25.1019 -0.891734 30.9254 -0.906736 34.5308 2.68198L40.7184 8.83962Z" fill="url(#paint0_linear_2_42)"/>
<path d="M31.5394 34.6981L16.5882 49.1532L3.74406 35.877L2.08433 34.1547C0.173379 31.8283 -0.426828 28.7889 0.297133 26.0152C4.11678 23.6318 8.53213 22.6116 12.8547 22.9373C16.5002 23.212 20.0826 24.4421 23.2004 26.6237C24.279 27.3684 25.2959 28.2394 26.2434 29.2186L31.5394 34.6981Z" fill="url(#paint1_linear_2_42)"/>
<path d="M8.32812 61.9345L19.1587 51.5087L33.7173 37.3984L38.7805 42.6113L39.7926 43.6591C40.0158 43.8898 40.2216 44.1191 40.4085 44.3637C42.2768 46.7245 42.8216 49.7742 42.0471 52.5343C41.6331 54.0605 40.8166 55.4964 39.5957 56.676L27.4185 68.4094C23.7647 71.9487 17.9418 71.8577 14.4025 68.2038L8.32812 61.9345Z" fill="url(#paint2_linear_2_42)"/>
<defs>
<linearGradient id="paint0_linear_2_42" x1="6.97014" y1="40.6067" x2="28.6825" y2="2.88183" gradientUnits="userSpaceOnUse">
<stop stop-color="#1440B5"/>
<stop offset="1" stop-color="#03D6F4"/>
</linearGradient>
<linearGradient id="paint1_linear_2_42" x1="40.9598" y1="57.7011" x2="7.26801" y2="25.7586" gradientUnits="userSpaceOnUse">
<stop stop-color="#1440B5"/>
<stop offset="1" stop-color="#03D6F4"/>
</linearGradient>
<linearGradient id="paint2_linear_2_42" x1="36.5994" y1="38.5506" x2="18.8639" y2="68.1034" gradientUnits="userSpaceOnUse">
<stop stop-color="#1440B5"/>
<stop offset="1" stop-color="#03D6F4"/>
</linearGradient>
</defs>
</svg> -->

<svg width="171" height="71" viewBox="0 0 115 35" fill="none" xmlns="http://www.w3.org/2000/svg">
<path d="M36.9578 14.1822C36.9008 13.6551 36.6627 13.2449 36.2438 12.9516C35.8288 12.6584 35.2893 12.5123 34.6253 12.5132C34.1584 12.5138 33.7581 12.5848 33.4242 12.7261C33.0904 12.8674 32.8351 13.059 32.6583 13.3007C32.4816 13.5424 32.3914 13.8182 32.3878 14.1281C32.3881 14.3857 32.4468 14.609 32.5638 14.798C32.6848 14.987 32.848 15.1477 33.0534 15.2802C33.2589 15.4088 33.4864 15.5171 33.7361 15.6053C33.9857 15.6935 34.2373 15.7676 34.491 15.8276L35.6505 16.1158C36.1175 16.2238 36.5664 16.3701 36.9973 16.5547C37.4322 16.7392 37.8209 16.9721 38.1634 17.2533C38.5099 17.5346 38.784 17.8743 38.9858 18.2725C39.1876 18.6706 39.2888 19.1373 39.2896 19.6726C39.2906 20.397 39.1063 21.0352 38.7368 21.5871C38.3673 22.1349 37.8326 22.5643 37.1328 22.8752C36.4369 23.182 35.594 23.3361 34.6039 23.3374C33.642 23.3388 32.8067 23.191 32.098 22.8941C31.3933 22.5973 30.8413 22.1634 30.4421 21.5924C30.0469 21.0215 29.8326 20.3255 29.7993 19.5045L32.0028 19.5015C32.0356 19.9321 32.1689 20.2901 32.4027 20.5755C32.6365 20.861 32.9406 21.0739 33.3151 21.2142C33.6936 21.3545 34.1163 21.4244 34.5832 21.4238C35.0702 21.4231 35.4967 21.3501 35.8627 21.2047C36.2328 21.0552 36.5223 20.8496 36.7312 20.5877C36.9401 20.3218 37.0463 20.0118 37.0499 19.6576C37.0454 19.3356 36.9505 19.0701 36.765 18.8611C36.5796 18.648 36.3198 18.4713 35.9855 18.3309C35.6553 18.1865 35.2688 18.0582 34.8259 17.9461L33.4188 17.5859C32.4002 17.3257 31.5948 16.9303 31.0024 16.3999C30.4141 15.8654 30.1193 15.1555 30.1181 14.2701C30.1171 13.5416 30.3134 12.9034 30.7071 12.3556C31.1048 11.8077 31.6455 11.3823 32.3293 11.0795C33.013 10.7727 33.7876 10.6187 34.6529 10.6175C35.5302 10.6163 36.2991 10.7682 36.9596 11.0732C37.6241 11.3741 38.1458 11.794 38.5249 12.3327C38.9039 12.8675 39.1 13.483 39.113 14.1792L36.9578 14.1822ZM41.1945 23.1412L41.1817 13.8685L43.3671 13.8655L43.3798 23.1382L41.1945 23.1412ZM42.2787 12.551C41.9325 12.5514 41.6346 12.4371 41.3847 12.2081C41.1349 11.975 41.0097 11.6955 41.0093 11.3695C41.0088 11.0394 41.1332 10.7596 41.3824 10.5298C41.6316 10.296 41.9293 10.1789 42.2754 10.1785C42.6255 10.178 42.9235 10.2943 43.1693 10.5274C43.4192 10.7564 43.5443 11.036 43.5448 11.366C43.5452 11.692 43.4209 11.9719 43.1716 12.2056C42.9265 12.4354 42.6288 12.5505 42.2787 12.551ZM45.6271 23.1352L45.6144 13.8624L47.7031 13.8596L47.7053 15.4352L47.814 15.4351C48.0064 14.9035 48.3258 14.4886 48.7721 14.1901C49.2184 13.8877 49.7515 13.736 50.3713 13.7352C50.9991 13.7343 51.5286 13.8865 51.9596 14.1918C52.3947 14.493 52.7011 14.9051 52.8789 15.4281L52.9755 15.428C53.1801 14.9125 53.5256 14.5016 54.0122 14.195C54.5028 13.8844 55.0841 13.7287 55.7562 13.7278C56.6094 13.7266 57.3061 13.9953 57.8461 14.5339C58.3862 15.0724 58.6569 15.8589 58.6583 16.8932L58.6668 23.1173L56.4754 23.1203L56.4674 17.2343C56.4666 16.6587 56.3131 16.2384 56.0068 15.9732C55.7006 15.7039 55.3261 15.5696 54.8834 15.5702C54.3562 15.571 53.9439 15.7365 53.6465 16.067C53.3532 16.3934 53.2068 16.8182 53.2076 17.3414L53.2155 23.1247L51.0724 23.1277L51.0642 17.1511C51.0635 16.6722 50.9181 16.2901 50.628 16.0047C50.3418 15.7193 49.9673 15.577 49.5045 15.5776C49.1906 15.5781 48.9049 15.6589 48.6476 15.8203C48.3902 15.9776 48.1853 16.2012 48.0327 16.4912C47.8802 16.7772 47.8042 17.1113 47.8047 17.4937L47.8125 23.1322L45.6271 23.1352ZM60.8887 26.5915L60.8712 13.8415L63.0203 13.8385L63.0224 15.3719L63.1492 15.3717C63.2616 15.1462 63.4202 14.9065 63.6251 14.6527C63.83 14.3948 64.1074 14.1751 64.4573 13.9935C64.8072 13.8079 65.2538 13.7147 65.7971 13.714C66.5135 13.713 67.1597 13.8952 67.7357 14.2607C68.3158 14.6221 68.7753 15.1588 69.1144 15.8707C69.4574 16.5785 69.6297 17.4476 69.6311 18.4779C69.6325 19.4961 69.4667 20.3617 69.1336 21.0745C68.8005 21.7873 68.3465 22.3312 67.7715 22.7063C67.1965 23.0814 66.5448 23.2694 65.8163 23.2704C65.285 23.2712 64.8442 23.1832 64.4938 23.0066C64.1435 22.83 63.8614 22.6171 63.6478 22.3679C63.4382 22.1146 63.2748 21.8754 63.1578 21.6501L63.0673 21.6503L63.074 26.5885L60.8887 26.5915ZM63.0207 18.4749C63.0215 19.0746 63.1067 19.5997 63.2764 20.0502C63.45 20.5007 63.698 20.8525 64.0204 21.1056C64.3467 21.3547 64.7413 21.4789 65.2041 21.4783C65.6871 21.4776 66.0914 21.3483 66.417 21.0903C66.7426 20.8282 66.9876 20.4717 67.152 20.0207C67.3204 19.5657 67.4043 19.0484 67.4035 18.4689C67.4027 17.8934 67.3195 17.3824 67.1538 16.9359C66.9882 16.4893 66.7422 16.1395 66.4159 15.8864C66.0896 15.6333 65.6829 15.5071 65.1959 15.5078C64.7291 15.5084 64.3328 15.6317 64.0071 15.8777C63.6815 16.1236 63.4344 16.4681 63.266 16.911C63.1016 17.3539 63.0198 17.8752 63.0207 18.4749ZM73.6773 10.733L73.6943 23.0966L71.5089 23.0996L71.4919 10.736L73.6773 10.733ZM75.9415 23.0935L75.9288 13.8208L78.1141 13.8178L78.1269 23.0905L75.9415 23.0935ZM77.0257 12.5033C76.6796 12.5037 76.3816 12.3894 76.1318 12.1604C75.8819 11.9273 75.7568 11.6478 75.7563 11.3218C75.7559 10.9917 75.8802 10.7119 76.1295 10.4821C76.3787 10.2483 76.6763 10.1312 77.0224 10.1307C77.3726 10.1303 77.6706 10.2466 77.9164 10.4797C78.1662 10.7087 78.2914 10.9883 78.2918 11.3183C78.2923 11.6443 78.1679 11.9242 77.9187 12.1579C77.6735 12.3877 77.3758 12.5028 77.0257 12.5033ZM80.4537 10.7237L83.1945 10.7199L86.8773 19.6737L87.0221 19.6735L90.6803 10.7097L93.4211 10.7059L93.438 23.0695L91.2889 23.0725L91.2772 14.5785L91.1625 14.5787L87.7572 23.0411L86.1514 23.0433L82.7229 14.5721L82.6082 14.5723L82.6199 23.0844L80.4707 23.0873L80.4537 10.7237ZM95.8769 23.0662L95.86 10.7025L98.0997 10.6995L98.1141 21.1856L103.559 21.1781L103.562 23.0556L95.8769 23.0662Z" fill="white"/>
<path d="M21.1335 4.10826L12.0414 12.3734L4.61992 19.0535L1.94323 16.674L1.40808 16.1957C1.29011 16.0904 1.18114 15.9856 1.0818 15.8735C0.0899863 14.7924 -0.221531 13.3798 0.154216 12.0907C0.354635 11.378 0.764734 10.7038 1.38711 10.1454L11.1657 1.26118C13.0283 -0.414438 16.0508 -0.42141 17.922 1.24646L21.1335 4.10826Z" fill="url(#paint0_linear_832_105)"/>
<path d="M16.3695 16.1261L8.60952 22.8442L1.94323 16.6741L1.0818 15.8736C0.0899863 14.7924 -0.221531 13.3798 0.154216 12.0907C2.13667 10.983 4.42831 10.5089 6.6718 10.6603C8.56386 10.7879 10.4232 11.3596 12.0414 12.3735C12.6012 12.7196 13.129 13.1244 13.6207 13.5795L16.3695 16.1261Z" fill="url(#paint1_linear_832_105)"/>
<path d="M4.32227 28.7844L9.94351 23.9389L17.4997 17.3811L20.1275 19.8038L20.6528 20.2908C20.7687 20.398 20.8755 20.5046 20.9725 20.6183C21.9422 21.7154 22.2249 23.1328 21.8229 24.4156C21.6081 25.1249 21.1843 25.7923 20.5506 26.3405L14.2305 31.7936C12.3341 33.4386 9.31192 33.3962 7.47497 31.6981L4.32227 28.7844Z" fill="url(#paint2_linear_832_105)"/>
<defs>
<linearGradient id="paint0_linear_832_105" x1="3.61761" y1="18.8722" x2="13.1222" y2="0.429996" gradientUnits="userSpaceOnUse">
<stop stop-color="#1440B5"/>
<stop offset="1" stop-color="#03D6F4"/>
</linearGradient>
<linearGradient id="paint1_linear_832_105" x1="21.2588" y1="26.8169" x2="5.60363" y2="10.2417" gradientUnits="userSpaceOnUse">
<stop stop-color="#1440B5"/>
<stop offset="1" stop-color="#03D6F4"/>
</linearGradient>
<linearGradient id="paint2_linear_832_105" x1="18.9955" y1="17.9166" x2="11.2058" y2="32.412" gradientUnits="userSpaceOnUse">
<stop stop-color="#1440B5"/>
<stop offset="1" stop-color="#03D6F4"/>
</linearGradient>
</defs>
</svg>
