<svg width="43" height="71" viewBox="0 0 43 71" fill="none" xmlns="http://www.w3.org/2000/svg">
<path d="M40.7184 8.83425L23.2004 26.6182L8.90131 40.9915L3.74406 35.8716L2.71298 34.8425C2.48568 34.6159 2.27574 34.3905 2.08433 34.1493C0.173379 31.8229 -0.426828 28.7835 0.297133 26.0098C0.683284 24.4763 1.47343 23.0258 2.67258 21.8242L21.5132 2.70828C25.1019 -0.897105 30.9254 -0.912108 34.5308 2.67661L40.7184 8.83425Z" fill="url(#paint0_linear_24_471)"/>
<path d="M31.5394 34.6927L16.5882 49.1478L3.74406 35.8717L2.08433 34.1493C0.173379 31.823 -0.426828 28.7836 0.297133 26.0098C4.11678 23.6264 8.53213 22.6062 12.8547 22.932C16.5002 23.2066 20.0826 24.4368 23.2004 26.6183C24.279 27.363 25.2959 28.234 26.2434 29.2133L31.5394 34.6927Z" fill="url(#paint1_linear_24_471)"/>
<path d="M8.32806 61.9291L19.1586 51.5033L33.7173 37.393L38.7804 42.606L39.7926 43.6537C40.0157 43.8844 40.2216 44.1137 40.4085 44.3583C42.2768 46.7191 42.8216 49.7689 42.047 52.5289C41.633 54.0551 40.8166 55.491 39.5957 56.6706L27.4184 68.404C23.7646 71.9434 17.9418 71.8523 14.4025 68.1985L8.32806 61.9291Z" fill="url(#paint2_linear_24_471)"/>
<defs>
<linearGradient id="paint0_linear_24_471" x1="6.97014" y1="40.6014" x2="28.6825" y2="2.87646" gradientUnits="userSpaceOnUse">
<stop stop-color="#1440B5"/>
<stop offset="1" stop-color="#03D6F4"/>
</linearGradient>
<linearGradient id="paint1_linear_24_471" x1="40.9598" y1="57.6958" x2="7.26801" y2="25.7532" gradientUnits="userSpaceOnUse">
<stop stop-color="#1440B5"/>
<stop offset="1" stop-color="#03D6F4"/>
</linearGradient>
<linearGradient id="paint2_linear_24_471" x1="36.5994" y1="38.5452" x2="18.8638" y2="68.0981" gradientUnits="userSpaceOnUse">
<stop stop-color="#1440B5"/>
<stop offset="1" stop-color="#03D6F4"/>
</linearGradient>
</defs>
</svg>
