<svg width="10" height="19" viewBox="0 0 10 19" fill="none" xmlns="http://www.w3.org/2000/svg">
<path d="M0.268733 1.60195C0.182891 1.5113 0.115782 1.40467 0.0712376 1.28815C0.0266924 1.17163 0.00558376 1.04749 0.00911808 0.922825C0.0126524 0.798161 0.04076 0.675413 0.091835 0.561588C0.14291 0.447763 0.215953 0.345091 0.306792 0.259434C0.397633 0.173777 0.504492 0.106813 0.621268 0.0623643C0.738044 0.0179157 0.862449 -0.00314678 0.987382 0.000379779C1.11232 0.00390634 1.23533 0.0319527 1.3494 0.0829176C1.46347 0.133882 1.56637 0.206768 1.65221 0.297412L9.73992 8.8424C9.90694 9.01868 10 9.25207 10 9.49466C10 9.73726 9.90694 9.97065 9.73992 10.1469L1.65221 18.6929C1.56693 18.7855 1.46406 18.8603 1.34957 18.9129C1.23508 18.9655 1.11125 18.9949 0.98528 18.9994C0.859307 19.0039 0.733701 18.9833 0.615756 18.9389C0.497812 18.8945 0.389881 18.8272 0.298232 18.7409C0.206584 18.6545 0.133044 18.5508 0.0818863 18.4359C0.0307274 18.3209 0.00296974 18.197 0.000226021 18.0712C-0.00251865 17.9455 0.019804 17.8204 0.0658979 17.7034C0.111992 17.5863 0.180939 17.4795 0.268733 17.3893L7.73987 9.49466L0.268733 1.60195Z" fill="white"/>
</svg>
