<svg width="12" height="15" viewBox="0 0 12 15" fill="none" xmlns="http://www.w3.org/2000/svg">
<path d="M11.483 6.1558L1.65835 0.223447C1.49271 0.123331 1.303 0.0686757 1.10881 0.0651261C0.914611 0.0615764 0.722976 0.109261 0.553694 0.203255C0.386024 0.295789 0.24635 0.430735 0.149036 0.594216C0.0517223 0.757697 0.00028016 0.943813 0 1.13342V12.9968C0.00126338 13.2812 0.116899 13.5535 0.321486 13.7538C0.526074 13.9541 0.802868 14.066 1.09102 14.0649C1.29215 14.0648 1.48937 14.0101 1.66108 13.9068L11.483 7.97441C11.6409 7.87943 11.7714 7.74596 11.8619 7.58684C11.9524 7.42771 12 7.24828 12 7.06578C12 6.88328 11.9524 6.70384 11.8619 6.54472C11.7714 6.3856 11.6409 6.25213 11.483 6.15715V6.1558ZM1.09102 12.984V1.14217L10.8986 7.06511L1.09102 12.984Z" fill="white"/>
</svg>
