<svg xmlns="http://www.w3.org/2000/svg" width="16" height="19" viewBox="0 0 16 19" fill="none">
  <path fill-rule="evenodd" clip-rule="evenodd" d="M10.2917 16.2457C11.9856 13.3912 11.9363 10.7047 10.9448 7.90276C9.95336 5.10079 8.30203 2.98116 5.1898 1.82731C3.4959 4.68178 3.54519 7.36828 4.53665 10.1703C5.52811 12.9722 7.17944 15.0919 10.2917 16.2457Z" stroke="white" stroke-width="0.7" stroke-linecap="round" stroke-linejoin="round"/>
  <path d="M11.6887 11.1204C12.102 11.1978 12.5033 11.3291 12.8823 11.511C14.0967 12.0899 14.9656 13.0938 15.4925 14.5216C13.4516 15.1447 12.1661 15.0092 11.0798 14.5986M5.95658 13.1487C5.68361 13.4688 5.45392 13.8234 5.27344 14.2034C4.69426 15.4169 4.64928 16.7442 5.13849 18.1853C7.11627 17.3864 8.03123 16.4723 8.6175 15.4699" stroke="white" stroke-width="0.7" stroke-linecap="round" stroke-linejoin="round"/>
  <path d="M7.45735 8.23548C8.34213 7.9224 8.80559 6.95135 8.49252 6.06656C8.17944 5.18178 7.20838 4.71832 6.3236 5.03139C5.43882 5.34447 4.97536 6.31553 5.28843 7.20031C5.60151 8.08509 6.57256 8.54856 7.45735 8.23548Z" stroke="white" stroke-width="0.7" stroke-linecap="round" stroke-linejoin="round"/>
</svg>